<?xml version="1.0" standalone="no"?>
<!DOCTYPE svg PUBLIC "-//W3C//DTD SVG 20010904//EN"
 "http://www.w3.org/TR/2001/REC-SVG-20010904/DTD/svg10.dtd">
<svg version="1.0" xmlns="http://www.w3.org/2000/svg"
 width="750.000000pt" height="750.000000pt" viewBox="0 0 750.000000 750.000000"
 preserveAspectRatio="xMidYMid meet">
<metadata>
Created by potrace 1.11, written by Peter Selinger 2001-2013
</metadata>
<g transform="translate(0.000000,750.000000) scale(0.100000,-0.100000)"
fill="#000000" stroke="none">
<path d="M1980 6661 l0 -289 1100 -633 c604 -349 1099 -637 1100 -640 0 -6
-972 -569 -984 -569 -4 0 -272 153 -597 340 -324 188 -596 343 -604 347 -13 5
-15 -32 -13 -287 l3 -292 1555 -898 c1134 -654 1559 -904 1570 -923 14 -25 13
-28 -10 -51 -39 -39 -893 -527 -912 -522 -14 3 -674 382 -2035 1169 l-183 106
0 -292 0 -292 855 -494 c470 -272 855 -497 855 -500 0 -3 -321 -190 -713 -416
-392 -225 -774 -450 -849 -500 l-138 -90 0 -277 c0 -153 4 -278 8 -278 13 0
3398 1955 3476 2008 104 70 190 162 234 250 34 70 37 83 37 161 0 76 -4 94
-31 152 -39 81 -137 188 -237 256 -39 28 -445 265 -902 528 -456 263 -833 481
-837 485 -4 3 36 31 90 62 53 31 276 160 494 286 l397 229 238 -134 c715 -405
891 -507 1108 -646 261 -166 472 -349 559 -484 40 -63 50 -86 74 -168 l9 -30
41 63 c66 102 77 146 77 302 -1 121 -3 143 -28 215 -82 236 -259 407 -680 659
-273 163 -4109 2376 -4119 2376 -4 0 -8 -130 -8 -289z"/>
</g>
</svg>
