<?xml version="1.0" encoding="utf-8"?>
<!-- Generator: Adobe Illustrator 16.0.0, SVG Export Plug-In . SVG Version: 6.00 Build 0)  -->
<svg version="1.2" baseProfile="tiny" id="Layer_1" xmlns="http://www.w3.org/2000/svg" xmlns:xlink="http://www.w3.org/1999/xlink"
	 x="0px" y="0px" width="3000px" height="3000px" viewBox="0 0 3000 3000" xml:space="preserve">
<g>
	<g>
		<path fill="#FAB911" d="M2667.166,1401.612v196.532h67.551v-196.532H2667.166z"/>
		<circle fill="#2D64AD" cx="2464.485" cy="1481.454" r="33.903"/>
		<circle fill="#2D64AD" cx="2464.485" cy="1518.303" r="33.903"/>
		<path fill="#2D64AD" d="M2430.826,1481.453h67.563v36.85h-67.563V1481.453z"/>
		<circle fill="#527BBD" cx="2937.393" cy="1518.303" r="33.903"/>
		<circle fill="#527BBD" cx="2937.393" cy="1481.454" r="33.903"/>
		<path fill="#527BBD" d="M2903.732,1481.453h67.563v36.85h-67.563V1481.453L2903.732,1481.453z"/>
		<circle fill="#E84436" cx="2581.176" cy="1591.996" r="33.903"/>
		<circle fill="#E84436" cx="2581.176" cy="1628.845" r="33.903"/>
		<path fill="#E84436" d="M2547.273,1591.996h67.563v36.85h-67.563V1591.996z"/>
		<circle fill="#E84436" cx="2581.176" cy="1370.905" r="33.903"/>
		<circle fill="#E84436" cx="2581.176" cy="1490.786" r="33.903"/>
		<path fill="#E84436" d="M2547.273,1370.905h67.563v120.623h-67.563V1370.905z"/>
		<circle fill="#34A953" cx="2820.701" cy="1407.754" r="33.903"/>
		<circle fill="#34A953" cx="2820.701" cy="1370.905" r="33.903"/>
		<path fill="#34A953" d="M2787.042,1370.905h67.562v36.85h-67.562V1370.905z"/>
		<circle fill="#FAB911" cx="2701.069" cy="1300.396" r="33.903"/>
		<circle fill="#FAB911" cx="2701.069" cy="1263.546" r="33.903"/>
		<path fill="#FAB911" d="M2667.166,1263.547h67.551v36.849h-67.551V1263.547z"/>
		<circle fill="#FAB911" cx="2701.069" cy="1736.454" r="33.903"/>
		<circle fill="#FAB911" cx="2701.069" cy="1699.604" r="33.903"/>
		<path fill="#FAB911" d="M2667.166,1699.604h67.551v36.85h-67.551V1699.604z"/>
		<circle fill="#34A953" cx="2820.701" cy="1628.845" r="33.903"/>
		<circle fill="#34A953" cx="2820.701" cy="1509.214" r="33.903"/>
		<path fill="#34A953" d="M2787.042,1509.214h67.562v119.893h-67.562V1509.214z"/>
		<circle fill="#FAB911" cx="2701.069" cy="1401.612" r="33.903"/>
		<circle fill="#FAB911" cx="2701.069" cy="1598.145" r="33.903"/>
	</g>
	<g>
		<path fill="none" d="M28.711,1323.243h2297.198v353.514H28.711V1323.243z"/>
		<path fill="#3D4043" d="M1162.449,1588.313h-28.74v-225.023h76.646c18.915,0,35.376,6.386,49.378,19.164
			c14.002,12.523,20.888,28.497,20.888,47.899c0,19.164-6.88,35.133-20.888,47.905c-13.426,12.403-31.099,19.182-49.378,18.914
			h-47.905V1588.313L1162.449,1588.313z M1162.449,1469.667h48.393c12.285,0,22.117-4.176,29.482-12.285
			c7.123-8.353,10.807-17.197,10.807-27.023s-3.684-18.915-11.05-27.023c-7.372-8.353-17.204-12.279-29.239-12.279h-48.393V1469.667
			z M1304.691,1452.956c14.732-15.719,33.653-23.584,56.744-23.584c23.098,0,42.012,7.859,57,23.341
			c14.732,15.719,22.111,35.127,22.111,58.711c0,23.341-7.373,42.992-22.111,58.474c-14.738,15.719-33.902,23.346-57,23.346
			c-23.091,0-41.756-7.615-56.744-23.346c-14.739-15.47-22.36-35.133-22.36-58.474c0-23.584,7.366-42.986,22.11-58.468H1304.691
			L1304.691,1452.956z M1326.065,1551.962c18.439,19.533,49.218,20.424,68.757,1.984c0.683-0.63,1.348-1.307,1.99-1.984
			c9.825-10.318,14.738-23.839,14.738-40.538c0-16.705-4.913-30.214-14.738-40.526c-9.826-9.826-21.618-15.232-35.377-15.232
			c-13.509,0-25.301,5.156-35.37,15.232c-9.825,10.313-14.738,23.827-14.738,40.526
			C1311.314,1528.123,1316.228,1541.644,1326.065,1551.962L1326.065,1551.962z M1527.754,1593.226
			c-19.657,0-36.854-7.859-51.6-23.347c-14.524-15.944-22.277-36.908-21.617-58.467c0-23.335,7.365-42.743,21.617-58.468
			c20.596-24.166,55.206-30.808,83.287-15.968c9.327,4.906,16.212,11.299,20.887,18.671h1.23l-1.23-21.374v-70.99h28.741v225.023
			h-27.511v-21.374h-1.23c-4.906,7.366-11.542,13.753-20.887,18.921C1550.115,1590.767,1539.541,1593.226,1527.754,1593.226
			L1527.754,1593.226z M1532.661,1566.95c13.515,0,25.063-4.906,34.391-14.976c9.825-10.075,14.489-23.591,14.489-40.539
			c0-17.198-4.907-30.457-14.246-40.526c-9.826-10.075-21.131-15.232-34.877-15.232c-13.26,0-24.82,4.913-34.396,15.232
			c-9.826,10.069-14.738,23.578-14.738,40.283c0,16.954,4.912,30.469,14.738,40.532c9.576,10.063,21.131,15.226,34.396,15.226
			H1532.661z M1709.543,1593.226c-23.104,0-42.012-7.609-57.006-23.347c-14.733-15.469-22.117-35.12-22.117-58.467
			c0-23.584,7.366-42.986,22.117-58.711c14.732-15.476,33.902-23.341,57.006-23.341c29.607-1.117,56.715,16.622,67.551,44.216
			l-26.537,11.05c-6.244-18.19-23.799-30.024-42.986-28.984c-12.772,0-24.077,5.406-33.902,15.719
			c-9.826,10.563-14.49,23.834-14.49,40.04c0,15.968,4.92,29.482,14.733,39.796c9.825,10.557,20.887,15.719,33.659,15.719
			c21.618,0,36.362-9.826,44.703-28.99l25.794,11.05C1766.769,1576.657,1739.4,1594.325,1709.543,1593.226L1709.543,1593.226z
			 M1846.622,1593.226c-16.462,0-30.214-4.663-41.015-13.996c-10.93-9.268-16.995-23.031-16.461-37.343
			c0-16.711,6.381-29.97,19.414-39.297c14.037-9.95,30.944-15.023,48.143-14.489c16.961,0,30.713,3.19,41.756,9.327v-4.42
			c0-11.299-3.92-20.145-11.785-27.023c-7.866-6.88-18.042-10.568-28.498-10.313c-8.352,0-15.968,1.961-22.848,6.137
			c-6.879,3.933-11.542,9.339-14.002,16.218l-26.281-11.299c3.435-9.095,10.557-17.697,21.131-25.551
			c10.313-7.865,24.078-11.792,41.27-11.792c19.646,0,36.107,5.649,49.135,17.198c13.004,11.549,19.657,27.761,19.657,48.642v93.102
			h-27.767v-21.375h-1.229c-10.966,17.299-30.397,27.351-50.857,26.293h0.243v-0.018H1846.622z M1851.285,1566.95
			c11.798,0,22.616-4.42,32.43-13.259c9.826-9.09,14.732-19.658,14.732-31.693c-8.34-6.63-20.643-9.82-36.837-9.82
			c-14.002,0-24.576,2.947-31.942,8.84c-6.88,6.137-10.557,13.26-10.557,21.374c0,7.61,3.434,13.51,9.825,17.941
			c6.38,4.42,13.99,6.623,22.105,6.623h0.243V1566.95z M2010.476,1593.226c-29.424,1.093-56.317-16.551-67.063-43.966l25.806-10.563
			c8.097,19.17,22.104,28.996,41.757,28.996c8.839,0,16.211-2.216,22.116-6.148c5.382-3.393,8.644-9.339,8.584-15.719
			c0-9.82-7.11-16.711-21.13-20.395l-30.945-7.366c-10.277-2.757-19.83-7.705-28.01-14.489c-8.691-6.761-13.622-17.258-13.26-28.247
			c0-13.759,6.137-24.57,18.185-33.167c12.553-8.632,27.511-13.104,42.73-12.772c13.759,0,25.806,3.196,36.606,9.333
			c10.568,6.137,18.195,14.732,22.859,26.537l-25.063,10.313c-5.649-13.509-17.454-20.395-35.133-20.395
			c-8.596,0-15.968,1.724-21.861,5.406c-5.649,3.439-8.597,8.347-8.597,14.246c0,8.845,6.624,14.738,20.389,17.935l30.47,7.366
			c14.233,3.189,25.052,9.083,31.931,17.198c6.879,8.114,10.324,17.203,10.324,27.766c0,13.747-5.649,25.308-16.96,34.391
			C2042.905,1588.812,2028.41,1593.226,2010.476,1593.226L2010.476,1593.226z M2157.873,1590.767
			c-16.212,0-28.497-4.171-37.093-12.767c-9.048-9.969-13.657-23.162-12.772-36.606v-80.572h-27.023v-26.53h27.023v-46.919h28.996
			v46.919h37.58v26.53h-37.58v78.612c0,16.711,6.867,25.052,20.632,25.052c5.406,0,9.825-0.975,13.26-2.447l9.825,24.563
			c-6.137,2.947-13.746,4.177-23.091,4.177h0.243V1590.767z M2258.84,1593.226c-29.424,1.093-56.329-16.551-67.063-43.966
			l25.794-10.563c8.109,19.17,22.117,28.996,41.769,28.996c8.827,0,16.212-2.216,22.104-6.148c5.395-3.393,8.644-9.339,8.597-15.719
			c0-9.82-7.123-16.711-21.131-20.395l-30.956-7.366c-10.271-2.757-19.83-7.705-28.011-14.489
			c-8.679-6.761-13.609-17.258-13.259-28.247c0-13.759,6.137-24.57,18.184-33.167c12.564-8.632,27.512-13.104,42.743-12.772
			c13.746,0,25.794,3.196,36.605,9.333c10.557,6.137,18.185,14.732,22.848,26.537l-25.052,10.313
			c-5.649-13.509-17.453-20.395-35.133-20.395c-8.596,0-15.974,1.724-21.873,5.406c-5.893,3.439-8.596,8.347-8.596,14.246
			c0,8.845,6.636,14.738,20.4,17.935l30.457,7.366c14.246,3.189,25.063,9.083,31.942,17.198
			c6.868,8.108,10.313,17.203,10.313,27.766c0,13.747-5.65,25.308-16.961,34.391
			C2291.27,1588.812,2276.78,1593.226,2258.84,1593.226L2258.84,1593.226z M36.077,1464.499
			c0-71.239,59.454-128.977,130.693-128.977c33.071-0.517,64.96,12.327,88.443,35.626l-25.063,24.57
			c-37.105-35.014-95.566-33.309-130.568,3.796c-16.438,17.43-25.461,40.551-25.176,64.497c0,51.832,40.533,93.601,92.371,93.601
			c24.38,1.021,48.047-8.353,65.103-25.801c9.826-9.825,16.705-24.576,19.165-44.216h-84.273v-35.126h118.657
			c1.229,6.38,1.966,13.746,1.966,22.104c1.075,30.374-9.873,59.94-30.463,82.301c-23.524,24.356-56.329,37.491-90.16,36.107
			C95.394,1593.131,37.152,1535.875,36.077,1464.499L36.077,1464.499z M381.725,1428.879c45.173-0.819,82.455,35.145,83.275,80.317
			c0.012,0.831,0.018,1.646,0.006,2.471c0.684,45.173-35.376,82.354-80.555,83.044c-0.908,0.012-1.823,0.012-2.727,0
			c-45.172,0.683-82.349-35.388-83.037-80.566c-0.012-0.832-0.012-1.651,0-2.483c-0.684-45.035,35.275-82.099,80.311-82.788
			C379.913,1428.861,380.815,1428.867,381.725,1428.879z M381.725,1561.782c25.058,0,46.919-20.644,46.919-50.37
			c0-29.971-21.867-50.358-46.675-50.358c-25.551,0-46.919,20.388-46.919,50.358C335.044,1541.15,356.674,1561.782,381.725,1561.782
			z M563.513,1428.879c45.173-0.683,82.349,35.389,83.032,80.566c0.012,0.743,0.012,1.485,0.006,2.222
			c0.683,45.173-35.389,82.354-80.561,83.044c-0.832,0.012-1.651,0.012-2.478,0c-45.172,0.819-82.461-35.145-83.281-80.323
			c-0.018-0.896-0.018-1.817,0-2.727c-0.688-45.035,35.264-82.099,80.306-82.8C561.528,1428.855,562.521,1428.855,563.513,1428.879z
			 M563.513,1561.782c25.058,0,46.676-20.644,46.676-50.37c0-29.971-21.381-50.358-46.676-50.358
			c-25.307,0-46.919,20.388-46.919,50.358c0,29.727,21.867,50.37,46.67,50.37H563.513z M786.339,1431.582h34.883v148.877
			c0,61.414-36.112,86.483-78.855,86.483c-32.299,0.19-61.467-19.247-73.699-49.135l31.937-13.259
			c5.4,13.503,19.165,29.482,41.514,29.482c27.023,0,44.216-17.203,44.216-48.642v-12.023h-1.224
			c-11.074,12.439-27.078,19.366-43.729,18.915c-44.584-1.462-79.883-38.187-79.592-82.788c0-46.676,38.079-83.293,79.592-83.293
			c19.657,0,35.62,8.846,43.729,18.671h1.224L786.339,1431.582L786.339,1431.582z M744.57,1559.566
			c24.564,0,44.216-20.888,44.216-50.115c0-29.239-19.657-50.37-44.216-50.37c-25.063,0-46.183,21.131-46.183,50.37
			C698.395,1538.453,719.513,1559.566,744.57,1559.566z M846.035,1589.056v-243.701h36.107v243.701H846.035z M982.135,1562.025
			c18.671,0,31.443-9.332,41.02-23.091l28.254,18.915c-15.47,23.114-41.472,36.95-69.273,36.85
			c-44.774,0.564-81.523-35.281-82.069-80.062c-0.018-0.992-0.006-1.984,0.018-2.982c0-49.129,35.62-82.788,78.606-82.788
			c42.748,0,63.873,33.903,70.752,52.574l3.684,9.339l-111.036,45.933c8.597,16.461,21.624,25.052,40.289,25.052L982.135,1562.025z
			 M979.676,1460.572c-18.915,0-44.709,16.461-43.729,48.392l74.192-30.706c-3.933-10.319-16.212-17.448-30.707-17.448
			L979.676,1460.572z"/>
	</g>
</g>
</svg>
